{
  "accessors": [
    {
      "bufferView": 2,
      "componentType": 5126,
      "count": 5033,
      "max": [
        0.091323114931583405,
        0.24569706618785858,
        0.058893684297800064
      ],
      "min": [
        -0.091412961483001709,
        8.8047461758833379e-05,
        -0.058892134577035904
      ],
      "type": "VEC3"
    },
    {
      "bufferView": 2,
      "byteOffset": 60396,
      "componentType": 5126,
      "count": 5033,
      "max": [
        0.99976521730422974,
        0.99303263425827026,
        0.99976068735122681
      ],
      "min": [
        -0.99949795007705688,
        -0.99853748083114624,
        -0.999930739402771
      ],
      "type": "VEC3"
    },
    {
      "bufferView": 3,
      "componentType": 5126,
      "count": 5033,
      "max": [
        0.99819451570510864,
        0.99997538328170776,
        0.99736833572387695,
        1
      ],
      "min": [
        -0.99968850612640381,
        -0.99997448921203613,
        -0.9998631477355957,
        -1
      ],
      "type": "VEC4"
    },
    {
      "bufferView": 3,
      "byteOffset": 80528,
      "componentType": 5126,
      "count": 5033,
      "max": [
        1,
        1,
        1,
        1
      ],
      "min": [
        1,
        1,
        1,
        1
      ],
      "type": "VEC4"
    },
    {
      "bufferView": 1,
      "componentType": 5126,
      "count": 5033,
      "max": [
        0.99595093727111816,
        0.99567717313766479
      ],
      "min": [
        0.00097465887665748596,
        0.00097465887665748596
      ],
      "type": "VEC2"
    },
    {
      "bufferView": 1,
      "byteOffset": 40264,
      "componentType": 5126,
      "count": 5033,
      "max": [
        0.99595093727111816,
        0.99567717313766479
      ],
      "min": [
        0.00097465887665748596,
        0.00097465887665748596
      ],
      "type": "VEC2"
    },
    {
      "bufferView": 0,
      "componentType": 5125,
      "count": 22782,
      "max": [
        5032
      ],
      "min": [
        0
      ],
      "type": "SCALAR"
    }
  ],
  "asset": {
    "extras": {
      "author": "David Wigforss (https://sketchfab.com/dwigfor)",
      "license": "CC-BY-NC-4.0 (http://creativecommons.org/licenses/by-nc/4.0/)",
      "source": "https://sketchfab.com/3d-models/batman-mask-6cb464f240ee478cafe88e8d41229081",
      "title": "Batman Mask"
    },
    "generator": "Sketchfab-6.52.0",
    "version": "2.0"
  },
  "bufferViews": [
    {
      "buffer": 0,
      "byteLength": 91128,
      "byteOffset": 0,
      "name": "floatBufferViews",
      "target": 34963
    },
    {
      "buffer": 0,
      "byteLength": 80528,
      "byteOffset": 91128,
      "byteStride": 8,
      "name": "floatBufferViews",
      "target": 34962
    },
    {
      "buffer": 0,
      "byteLength": 120792,
      "byteOffset": 171656,
      "byteStride": 12,
      "name": "floatBufferViews",
      "target": 34962
    },
    {
      "buffer": 0,
      "byteLength": 161056,
      "byteOffset": 292448,
      "byteStride": 16,
      "name": "floatBufferViews",
      "target": 34962
    }
  ],
  "buffers": [
    {
      "byteLength": 453504,
      "uri": "scene.bin"
    }
  ],
  "images": [
    {
      "uri": "textures/MAT_Mask_Batman_baseColor.jpeg"
    },
    {
      "uri": "textures/MAT_Mask_Batman_normal.png"
    }
  ],
  "materials": [
    {
      "doubleSided": true,
      "emissiveFactor": [
        0,
        0,
        0
      ],
      "name": "MAT_Mask_Batman",
      "normalTexture": {
        "index": 1,
        "scale": 1,
        "texCoord": 0
      },
      "pbrMetallicRoughness": {
        "baseColorFactor": [
          1,
          1,
          1,
          1
        ],
        "baseColorTexture": {
          "index": 0,
          "texCoord": 0
        },
        "metallicFactor": 0,
        "roughnessFactor": 0.95770514946237739
      }
    }
  ],
  "meshes": [
    {
      "name": "geo1_MAT_Mask_Batman_0",
      "primitives": [
        {
          "attributes": {
            "COLOR_0": 3,
            "NORMAL": 1,
            "POSITION": 0,
            "TANGENT": 2,
            "TEXCOORD_0": 4,
            "TEXCOORD_1": 5
          },
          "indices": 6,
          "material": 0,
          "mode": 4
        }
      ]
    }
  ],
  "nodes": [
    {
      "children": [
        1
      ],
      "name": "RootNode (gltf orientation matrix)",
      "rotation": [
        -0.70710678118654746,
        -0,
        -0,
        0.70710678118654757
      ]
    },
    {
      "children": [
        2
      ],
      "name": "RootNode (model correction matrix)"
    },
    {
      "children": [
        3
      ],
      "matrix": [
        1,
        0,
        0,
        0,
        0,
        0,
        1,
        0,
        0,
        -1,
        0,
        0,
        0,
        0,
        0,
        1
      ],
      "name": "mesh.fbx"
    },
    {
      "children": [
        4
      ],
      "name": "RootNode"
    },
    {
      "children": [
        5
      ],
      "name": "geo1"
    },
    {
      "mesh": 0,
      "name": "geo1_MAT_Mask_Batman_0"
    }
  ],
  "samplers": [
    {
      "magFilter": 9729,
      "minFilter": 9987,
      "wrapS": 10497,
      "wrapT": 10497
    }
  ],
  "scene": 0,
  "scenes": [
    {
      "name": "OSG_Scene",
      "nodes": [
        0
      ]
    }
  ],
  "textures": [
    {
      "sampler": 0,
      "source": 0
    },
    {
      "sampler": 0,
      "source": 1
    }
  ]
}

